<mxfile host="app.diagrams.net" modified="2023-10-31T16:37:22.640Z" agent="Mozilla/5.0 (Windows NT 10.0; Win64; x64) AppleWebKit/537.36 (KHTML, like Gecko) Chrome/118.0.0.0 Safari/537.36" etag="7JzkJtozB8hDDVLpPvUh" version="22.0.8" type="github" pages="2">
  <diagram name="1vs1音视频通话流程" id="CEUbCkrz-AgT4HGh3NTy">
    <mxGraphModel dx="844" dy="710" grid="1" gridSize="10" guides="1" tooltips="1" connect="1" arrows="1" fold="1" page="1" pageScale="1" pageWidth="827" pageHeight="1169" math="0" shadow="0">
      <root>
        <mxCell id="0" />
        <mxCell id="1" parent="0" />
        <mxCell id="JSMFhTpgARK4AJPHhYGe-15" value="" style="rounded=0;whiteSpace=wrap;html=1;" parent="1" vertex="1">
          <mxGeometry x="527" y="280" width="330" height="200" as="geometry" />
        </mxCell>
        <mxCell id="JSMFhTpgARK4AJPHhYGe-1" value="" style="rounded=0;whiteSpace=wrap;html=1;" parent="1" vertex="1">
          <mxGeometry x="40" y="280" width="330" height="200" as="geometry" />
        </mxCell>
        <mxCell id="JSMFhTpgARK4AJPHhYGe-3" value="音视频设备&lt;br&gt;检测" style="rounded=0;whiteSpace=wrap;html=1;" parent="1" vertex="1">
          <mxGeometry x="50" y="290" width="70" height="40" as="geometry" />
        </mxCell>
        <mxCell id="JSMFhTpgARK4AJPHhYGe-22" style="edgeStyle=orthogonalEdgeStyle;rounded=0;orthogonalLoop=1;jettySize=auto;html=1;exitX=0.5;exitY=0;exitDx=0;exitDy=0;entryX=0.5;entryY=1;entryDx=0;entryDy=0;" parent="1" source="JSMFhTpgARK4AJPHhYGe-4" target="JSMFhTpgARK4AJPHhYGe-3" edge="1">
          <mxGeometry relative="1" as="geometry" />
        </mxCell>
        <mxCell id="JSMFhTpgARK4AJPHhYGe-23" style="edgeStyle=orthogonalEdgeStyle;rounded=0;orthogonalLoop=1;jettySize=auto;html=1;exitX=0.5;exitY=1;exitDx=0;exitDy=0;entryX=0.5;entryY=0;entryDx=0;entryDy=0;" parent="1" source="JSMFhTpgARK4AJPHhYGe-4" target="JSMFhTpgARK4AJPHhYGe-5" edge="1">
          <mxGeometry relative="1" as="geometry" />
        </mxCell>
        <mxCell id="JSMFhTpgARK4AJPHhYGe-24" style="edgeStyle=orthogonalEdgeStyle;rounded=0;orthogonalLoop=1;jettySize=auto;html=1;exitX=1;exitY=0.5;exitDx=0;exitDy=0;entryX=0;entryY=0.5;entryDx=0;entryDy=0;" parent="1" source="JSMFhTpgARK4AJPHhYGe-4" target="JSMFhTpgARK4AJPHhYGe-6" edge="1">
          <mxGeometry relative="1" as="geometry" />
        </mxCell>
        <mxCell id="JSMFhTpgARK4AJPHhYGe-4" value="音视频采集" style="rounded=0;whiteSpace=wrap;html=1;strokeWidth=3;strokeColor=#ff0000;" parent="1" vertex="1">
          <mxGeometry x="50" y="360" width="70" height="40" as="geometry" />
        </mxCell>
        <mxCell id="JSMFhTpgARK4AJPHhYGe-5" value="录制" style="rounded=0;whiteSpace=wrap;html=1;" parent="1" vertex="1">
          <mxGeometry x="50" y="430" width="70" height="40" as="geometry" />
        </mxCell>
        <mxCell id="JSMFhTpgARK4AJPHhYGe-25" style="edgeStyle=orthogonalEdgeStyle;rounded=0;orthogonalLoop=1;jettySize=auto;html=1;exitX=1;exitY=0.5;exitDx=0;exitDy=0;entryX=0;entryY=0.5;entryDx=0;entryDy=0;" parent="1" source="JSMFhTpgARK4AJPHhYGe-6" target="JSMFhTpgARK4AJPHhYGe-7" edge="1">
          <mxGeometry relative="1" as="geometry" />
        </mxCell>
        <mxCell id="JSMFhTpgARK4AJPHhYGe-6" value="音视频采集" style="rounded=0;whiteSpace=wrap;html=1;" parent="1" vertex="1">
          <mxGeometry x="160" y="360" width="70" height="40" as="geometry" />
        </mxCell>
        <mxCell id="JSMFhTpgARK4AJPHhYGe-7" value="创建连接" style="rounded=0;whiteSpace=wrap;html=1;" parent="1" vertex="1">
          <mxGeometry x="270" y="360" width="70" height="40" as="geometry" />
        </mxCell>
        <mxCell id="JSMFhTpgARK4AJPHhYGe-10" value="创建连接" style="rounded=0;whiteSpace=wrap;html=1;" parent="1" vertex="1">
          <mxGeometry x="557" y="360" width="70" height="40" as="geometry" />
        </mxCell>
        <mxCell id="JSMFhTpgARK4AJPHhYGe-29" style="edgeStyle=orthogonalEdgeStyle;rounded=0;orthogonalLoop=1;jettySize=auto;html=1;exitX=0;exitY=0.5;exitDx=0;exitDy=0;entryX=1;entryY=0.5;entryDx=0;entryDy=0;" parent="1" source="JSMFhTpgARK4AJPHhYGe-11" target="JSMFhTpgARK4AJPHhYGe-10" edge="1">
          <mxGeometry relative="1" as="geometry" />
        </mxCell>
        <mxCell id="JSMFhTpgARK4AJPHhYGe-11" value="音视频采集" style="rounded=0;whiteSpace=wrap;html=1;" parent="1" vertex="1">
          <mxGeometry x="667" y="360" width="70" height="40" as="geometry" />
        </mxCell>
        <mxCell id="JSMFhTpgARK4AJPHhYGe-12" value="音视频设备&lt;br&gt;检测" style="rounded=0;whiteSpace=wrap;html=1;" parent="1" vertex="1">
          <mxGeometry x="777" y="290" width="70" height="40" as="geometry" />
        </mxCell>
        <mxCell id="JSMFhTpgARK4AJPHhYGe-28" style="edgeStyle=orthogonalEdgeStyle;rounded=0;orthogonalLoop=1;jettySize=auto;html=1;exitX=0;exitY=0.5;exitDx=0;exitDy=0;entryX=1;entryY=0.5;entryDx=0;entryDy=0;" parent="1" source="JSMFhTpgARK4AJPHhYGe-13" target="JSMFhTpgARK4AJPHhYGe-11" edge="1">
          <mxGeometry relative="1" as="geometry" />
        </mxCell>
        <mxCell id="JSMFhTpgARK4AJPHhYGe-30" style="edgeStyle=orthogonalEdgeStyle;rounded=0;orthogonalLoop=1;jettySize=auto;html=1;exitX=0.5;exitY=0;exitDx=0;exitDy=0;entryX=0.5;entryY=1;entryDx=0;entryDy=0;" parent="1" source="JSMFhTpgARK4AJPHhYGe-13" target="JSMFhTpgARK4AJPHhYGe-12" edge="1">
          <mxGeometry relative="1" as="geometry" />
        </mxCell>
        <mxCell id="JSMFhTpgARK4AJPHhYGe-31" style="edgeStyle=orthogonalEdgeStyle;rounded=0;orthogonalLoop=1;jettySize=auto;html=1;exitX=0.5;exitY=1;exitDx=0;exitDy=0;entryX=0.5;entryY=0;entryDx=0;entryDy=0;" parent="1" source="JSMFhTpgARK4AJPHhYGe-13" target="JSMFhTpgARK4AJPHhYGe-14" edge="1">
          <mxGeometry relative="1" as="geometry" />
        </mxCell>
        <mxCell id="JSMFhTpgARK4AJPHhYGe-13" value="音视频采集" style="rounded=0;whiteSpace=wrap;html=1;strokeWidth=3;strokeColor=#ff0000;" parent="1" vertex="1">
          <mxGeometry x="777" y="360" width="70" height="40" as="geometry" />
        </mxCell>
        <mxCell id="JSMFhTpgARK4AJPHhYGe-14" value="录制" style="rounded=0;whiteSpace=wrap;html=1;" parent="1" vertex="1">
          <mxGeometry x="777" y="430" width="70" height="40" as="geometry" />
        </mxCell>
        <mxCell id="JSMFhTpgARK4AJPHhYGe-40" style="edgeStyle=orthogonalEdgeStyle;rounded=0;orthogonalLoop=1;jettySize=auto;html=1;exitX=0;exitY=0.5;exitDx=0;exitDy=0;entryX=1;entryY=0.5;entryDx=0;entryDy=0;" parent="1" source="JSMFhTpgARK4AJPHhYGe-16" target="JSMFhTpgARK4AJPHhYGe-7" edge="1">
          <mxGeometry relative="1" as="geometry" />
        </mxCell>
        <mxCell id="JSMFhTpgARK4AJPHhYGe-41" style="edgeStyle=orthogonalEdgeStyle;rounded=0;orthogonalLoop=1;jettySize=auto;html=1;exitX=1;exitY=0.5;exitDx=0;exitDy=0;entryX=0;entryY=0.5;entryDx=0;entryDy=0;" parent="1" source="JSMFhTpgARK4AJPHhYGe-16" target="JSMFhTpgARK4AJPHhYGe-10" edge="1">
          <mxGeometry relative="1" as="geometry" />
        </mxCell>
        <mxCell id="JSMFhTpgARK4AJPHhYGe-16" value="NAT" style="rounded=1;whiteSpace=wrap;html=1;fillColor=#ffcc99;strokeColor=#36393d;" parent="1" vertex="1">
          <mxGeometry x="430" y="335" width="40" height="90" as="geometry" />
        </mxCell>
        <mxCell id="JSMFhTpgARK4AJPHhYGe-26" value="Signal&lt;br&gt;Server" style="rounded=0;whiteSpace=wrap;html=1;" parent="1" vertex="1">
          <mxGeometry x="411.25" y="180" width="84" height="40" as="geometry" />
        </mxCell>
        <mxCell id="JSMFhTpgARK4AJPHhYGe-27" value="STUN/TURN" style="rounded=0;whiteSpace=wrap;html=1;" parent="1" vertex="1">
          <mxGeometry x="411.25" y="260" width="84" height="40" as="geometry" />
        </mxCell>
        <mxCell id="JSMFhTpgARK4AJPHhYGe-33" value="" style="curved=1;endArrow=classic;html=1;rounded=0;entryX=0.5;entryY=1;entryDx=0;entryDy=0;exitX=0.5;exitY=1;exitDx=0;exitDy=0;" parent="1" source="JSMFhTpgARK4AJPHhYGe-4" target="JSMFhTpgARK4AJPHhYGe-7" edge="1">
          <mxGeometry width="50" height="50" relative="1" as="geometry">
            <mxPoint x="170" y="470" as="sourcePoint" />
            <mxPoint x="220" y="420" as="targetPoint" />
            <Array as="points">
              <mxPoint x="200" y="470" />
            </Array>
          </mxGeometry>
        </mxCell>
        <mxCell id="JSMFhTpgARK4AJPHhYGe-38" value="&lt;font style=&quot;font-size: 12px;&quot;&gt;bind Tracks&lt;/font&gt;" style="edgeLabel;html=1;align=center;verticalAlign=middle;resizable=0;points=[];" parent="JSMFhTpgARK4AJPHhYGe-33" vertex="1" connectable="0">
          <mxGeometry x="-0.1611" y="24" relative="1" as="geometry">
            <mxPoint as="offset" />
          </mxGeometry>
        </mxCell>
        <mxCell id="JSMFhTpgARK4AJPHhYGe-36" value="" style="curved=1;endArrow=classic;html=1;rounded=0;exitX=0;exitY=0;exitDx=0;exitDy=0;entryX=1;entryY=0;entryDx=0;entryDy=0;" parent="1" source="JSMFhTpgARK4AJPHhYGe-7" target="JSMFhTpgARK4AJPHhYGe-6" edge="1">
          <mxGeometry width="50" height="50" relative="1" as="geometry">
            <mxPoint x="230" y="350" as="sourcePoint" />
            <mxPoint x="280" y="300" as="targetPoint" />
            <Array as="points">
              <mxPoint x="260" y="330" />
            </Array>
          </mxGeometry>
        </mxCell>
        <mxCell id="JSMFhTpgARK4AJPHhYGe-39" value="&lt;font style=&quot;font-size: 12px;&quot;&gt;offer&lt;/font&gt;" style="edgeLabel;html=1;align=center;verticalAlign=middle;resizable=0;points=[];" parent="JSMFhTpgARK4AJPHhYGe-36" vertex="1" connectable="0">
          <mxGeometry x="-0.5354" y="6" relative="1" as="geometry">
            <mxPoint y="-11" as="offset" />
          </mxGeometry>
        </mxCell>
        <mxCell id="JSMFhTpgARK4AJPHhYGe-37" value="" style="curved=1;endArrow=classic;html=1;rounded=0;exitX=0.5;exitY=0;exitDx=0;exitDy=0;entryX=0;entryY=0.5;entryDx=0;entryDy=0;startArrow=classic;startFill=1;" parent="1" source="JSMFhTpgARK4AJPHhYGe-6" target="JSMFhTpgARK4AJPHhYGe-26" edge="1">
          <mxGeometry width="50" height="50" relative="1" as="geometry">
            <mxPoint x="200" y="230" as="sourcePoint" />
            <mxPoint x="250" y="180" as="targetPoint" />
            <Array as="points">
              <mxPoint x="210" y="200" />
            </Array>
          </mxGeometry>
        </mxCell>
        <mxCell id="GE3nitP5iwhwEXbCrRZD-6" value="&lt;font style=&quot;font-size: 12px;&quot;&gt;SDP&lt;/font&gt;" style="edgeLabel;html=1;align=center;verticalAlign=middle;resizable=0;points=[];" parent="JSMFhTpgARK4AJPHhYGe-37" vertex="1" connectable="0">
          <mxGeometry x="-0.3656" y="-31" relative="1" as="geometry">
            <mxPoint as="offset" />
          </mxGeometry>
        </mxCell>
        <mxCell id="JSMFhTpgARK4AJPHhYGe-42" value="" style="curved=1;endArrow=classic;html=1;rounded=0;entryX=0;entryY=0.5;entryDx=0;entryDy=0;exitX=0.5;exitY=0;exitDx=0;exitDy=0;startArrow=classicThin;startFill=1;" parent="1" source="JSMFhTpgARK4AJPHhYGe-7" target="JSMFhTpgARK4AJPHhYGe-27" edge="1">
          <mxGeometry width="50" height="50" relative="1" as="geometry">
            <mxPoint x="420" y="380" as="sourcePoint" />
            <mxPoint x="470" y="330" as="targetPoint" />
            <Array as="points">
              <mxPoint x="320" y="290" />
            </Array>
          </mxGeometry>
        </mxCell>
        <mxCell id="JSMFhTpgARK4AJPHhYGe-43" value="" style="curved=1;endArrow=classic;html=1;rounded=0;entryX=0.5;entryY=1;entryDx=0;entryDy=0;exitX=0.5;exitY=1;exitDx=0;exitDy=0;" parent="1" source="JSMFhTpgARK4AJPHhYGe-13" target="JSMFhTpgARK4AJPHhYGe-10" edge="1">
          <mxGeometry width="50" height="50" relative="1" as="geometry">
            <mxPoint x="540" y="380" as="sourcePoint" />
            <mxPoint x="590" y="330" as="targetPoint" />
            <Array as="points">
              <mxPoint x="700" y="480" />
            </Array>
          </mxGeometry>
        </mxCell>
        <mxCell id="JSMFhTpgARK4AJPHhYGe-44" value="&lt;font style=&quot;font-size: 12px;&quot;&gt;bind Tracks&lt;/font&gt;" style="edgeLabel;html=1;align=center;verticalAlign=middle;resizable=0;points=[];" parent="JSMFhTpgARK4AJPHhYGe-43" vertex="1" connectable="0">
          <mxGeometry x="0.2083" y="-28" relative="1" as="geometry">
            <mxPoint as="offset" />
          </mxGeometry>
        </mxCell>
        <mxCell id="JSMFhTpgARK4AJPHhYGe-49" value="" style="curved=1;endArrow=classic;html=1;rounded=0;startArrow=classic;startFill=1;exitX=0.5;exitY=0;exitDx=0;exitDy=0;entryX=1;entryY=0.5;entryDx=0;entryDy=0;" parent="1" source="JSMFhTpgARK4AJPHhYGe-10" target="JSMFhTpgARK4AJPHhYGe-27" edge="1">
          <mxGeometry width="50" height="50" relative="1" as="geometry">
            <mxPoint x="480" y="330" as="sourcePoint" />
            <mxPoint x="530" y="280" as="targetPoint" />
            <Array as="points">
              <mxPoint x="580" y="290" />
            </Array>
          </mxGeometry>
        </mxCell>
        <mxCell id="JSMFhTpgARK4AJPHhYGe-50" value="" style="curved=1;endArrow=classic;html=1;rounded=0;startArrow=classic;startFill=1;entryX=1;entryY=0.5;entryDx=0;entryDy=0;exitX=0.5;exitY=0;exitDx=0;exitDy=0;" parent="1" source="JSMFhTpgARK4AJPHhYGe-11" target="JSMFhTpgARK4AJPHhYGe-26" edge="1">
          <mxGeometry width="50" height="50" relative="1" as="geometry">
            <mxPoint x="480" y="330" as="sourcePoint" />
            <mxPoint x="530" y="280" as="targetPoint" />
            <Array as="points">
              <mxPoint x="710" y="200" />
            </Array>
          </mxGeometry>
        </mxCell>
        <mxCell id="GE3nitP5iwhwEXbCrRZD-8" value="&lt;font style=&quot;font-size: 12px;&quot;&gt;SDP&lt;/font&gt;" style="edgeLabel;html=1;align=center;verticalAlign=middle;resizable=0;points=[];" parent="JSMFhTpgARK4AJPHhYGe-50" vertex="1" connectable="0">
          <mxGeometry x="0.1916" y="34" relative="1" as="geometry">
            <mxPoint as="offset" />
          </mxGeometry>
        </mxCell>
        <mxCell id="JSMFhTpgARK4AJPHhYGe-51" value="" style="curved=1;endArrow=classic;html=1;rounded=0;exitX=1;exitY=0;exitDx=0;exitDy=0;entryX=0;entryY=0;entryDx=0;entryDy=0;" parent="1" source="JSMFhTpgARK4AJPHhYGe-10" target="JSMFhTpgARK4AJPHhYGe-11" edge="1">
          <mxGeometry width="50" height="50" relative="1" as="geometry">
            <mxPoint x="480" y="330" as="sourcePoint" />
            <mxPoint x="530" y="280" as="targetPoint" />
            <Array as="points">
              <mxPoint x="640" y="330" />
            </Array>
          </mxGeometry>
        </mxCell>
        <mxCell id="JSMFhTpgARK4AJPHhYGe-52" value="&lt;font style=&quot;font-size: 12px;&quot;&gt;answer&lt;/font&gt;" style="edgeLabel;html=1;align=center;verticalAlign=middle;resizable=0;points=[];" parent="JSMFhTpgARK4AJPHhYGe-51" vertex="1" connectable="0">
          <mxGeometry x="0.3212" y="-8" relative="1" as="geometry">
            <mxPoint y="-12" as="offset" />
          </mxGeometry>
        </mxCell>
        <mxCell id="JSMFhTpgARK4AJPHhYGe-53" value="&lt;font style=&quot;font-size: 14px;&quot;&gt;WebRTC终端&lt;/font&gt;" style="text;strokeColor=none;fillColor=none;html=1;fontSize=24;fontStyle=1;verticalAlign=middle;align=center;" parent="1" vertex="1">
          <mxGeometry x="255" y="430" width="100" height="40" as="geometry" />
        </mxCell>
        <mxCell id="JSMFhTpgARK4AJPHhYGe-54" value="&lt;font style=&quot;font-size: 14px;&quot;&gt;WebRTC终端&lt;/font&gt;" style="text;strokeColor=none;fillColor=none;html=1;fontSize=24;fontStyle=1;verticalAlign=middle;align=center;" parent="1" vertex="1">
          <mxGeometry x="540" y="430" width="100" height="40" as="geometry" />
        </mxCell>
      </root>
    </mxGraphModel>
  </diagram>
  <diagram id="sXdJtNyX1c-0CSpySZGh" name="传统直播架构">
    <mxGraphModel dx="693" dy="710" grid="1" gridSize="10" guides="1" tooltips="1" connect="1" arrows="1" fold="1" page="1" pageScale="1" pageWidth="827" pageHeight="1169" math="0" shadow="0">
      <root>
        <mxCell id="0" />
        <mxCell id="1" parent="0" />
        <mxCell id="wOfQMUhciinJpy3_DIqF-18" value="" style="rounded=0;whiteSpace=wrap;html=1;fillColor=#f8cecc;strokeColor=#b85450;" vertex="1" parent="1">
          <mxGeometry x="455" y="370" width="145" height="100" as="geometry" />
        </mxCell>
        <mxCell id="wOfQMUhciinJpy3_DIqF-1" value="" style="rounded=0;whiteSpace=wrap;html=1;fillColor=#dae8fc;strokeColor=#6c8ebf;" vertex="1" parent="1">
          <mxGeometry x="210" y="190" width="130" height="70" as="geometry" />
        </mxCell>
        <mxCell id="wOfQMUhciinJpy3_DIqF-2" value="" style="rounded=0;whiteSpace=wrap;html=1;fillColor=#dae8fc;strokeColor=#6c8ebf;" vertex="1" parent="1">
          <mxGeometry x="220" y="200" width="130" height="70" as="geometry" />
        </mxCell>
        <mxCell id="wOfQMUhciinJpy3_DIqF-3" value="信令服务器" style="rounded=0;whiteSpace=wrap;html=1;fillColor=#dae8fc;strokeColor=#6c8ebf;" vertex="1" parent="1">
          <mxGeometry x="230" y="210" width="130" height="70" as="geometry" />
        </mxCell>
        <mxCell id="wOfQMUhciinJpy3_DIqF-7" value="创建房间" style="rounded=0;whiteSpace=wrap;html=1;fillColor=#f8cecc;strokeColor=#b85450;" vertex="1" parent="1">
          <mxGeometry x="100" y="220" width="80" height="30" as="geometry" />
        </mxCell>
        <mxCell id="wOfQMUhciinJpy3_DIqF-8" value="聊天" style="rounded=0;whiteSpace=wrap;html=1;fillColor=#f8cecc;strokeColor=#b85450;" vertex="1" parent="1">
          <mxGeometry x="100" y="260" width="80" height="30" as="geometry" />
        </mxCell>
        <mxCell id="wOfQMUhciinJpy3_DIqF-9" value="礼物" style="rounded=0;whiteSpace=wrap;html=1;fillColor=#f8cecc;strokeColor=#b85450;" vertex="1" parent="1">
          <mxGeometry x="100" y="300" width="80" height="30" as="geometry" />
        </mxCell>
        <mxCell id="wOfQMUhciinJpy3_DIqF-10" value="CDN" style="ellipse;shape=cloud;whiteSpace=wrap;html=1;fillColor=#b1ddf0;strokeColor=#10739e;" vertex="1" parent="1">
          <mxGeometry x="430" y="200" width="170" height="110" as="geometry" />
        </mxCell>
        <mxCell id="wOfQMUhciinJpy3_DIqF-11" value="观众" style="shape=umlActor;verticalLabelPosition=bottom;verticalAlign=top;html=1;outlineConnect=0;" vertex="1" parent="1">
          <mxGeometry x="460" y="380" width="30" height="60" as="geometry" />
        </mxCell>
        <mxCell id="wOfQMUhciinJpy3_DIqF-15" value="观众" style="shape=umlActor;verticalLabelPosition=bottom;verticalAlign=top;html=1;outlineConnect=0;" vertex="1" parent="1">
          <mxGeometry x="510" y="380" width="30" height="60" as="geometry" />
        </mxCell>
        <mxCell id="wOfQMUhciinJpy3_DIqF-16" value="观众" style="shape=umlActor;verticalLabelPosition=bottom;verticalAlign=top;html=1;outlineConnect=0;" vertex="1" parent="1">
          <mxGeometry x="560" y="380" width="30" height="60" as="geometry" />
        </mxCell>
        <mxCell id="wOfQMUhciinJpy3_DIqF-19" value="" style="endArrow=classic;startArrow=classic;html=1;rounded=0;entryX=0.352;entryY=1.014;entryDx=0;entryDy=0;entryPerimeter=0;" edge="1" parent="1" target="wOfQMUhciinJpy3_DIqF-3">
          <mxGeometry width="50" height="50" relative="1" as="geometry">
            <mxPoint x="275.21448153523625" y="370" as="sourcePoint" />
            <mxPoint x="330" y="340" as="targetPoint" />
          </mxGeometry>
        </mxCell>
        <mxCell id="wOfQMUhciinJpy3_DIqF-22" value="信令" style="edgeLabel;html=1;align=center;verticalAlign=middle;resizable=0;points=[];" vertex="1" connectable="0" parent="wOfQMUhciinJpy3_DIqF-19">
          <mxGeometry x="0.1096" y="2" relative="1" as="geometry">
            <mxPoint as="offset" />
          </mxGeometry>
        </mxCell>
        <mxCell id="wOfQMUhciinJpy3_DIqF-20" value="" style="endArrow=classic;startArrow=classic;html=1;rounded=0;entryX=0.31;entryY=0.8;entryDx=0;entryDy=0;entryPerimeter=0;exitX=0.671;exitY=-0.014;exitDx=0;exitDy=0;exitPerimeter=0;" edge="1" parent="1" target="wOfQMUhciinJpy3_DIqF-10">
          <mxGeometry width="50" height="50" relative="1" as="geometry">
            <mxPoint x="286.97" y="369.02" as="sourcePoint" />
            <mxPoint x="330" y="340" as="targetPoint" />
          </mxGeometry>
        </mxCell>
        <mxCell id="wOfQMUhciinJpy3_DIqF-21" value="RTMP" style="edgeLabel;html=1;align=center;verticalAlign=middle;resizable=0;points=[];" vertex="1" connectable="0" parent="wOfQMUhciinJpy3_DIqF-20">
          <mxGeometry x="-0.15" y="-3" relative="1" as="geometry">
            <mxPoint as="offset" />
          </mxGeometry>
        </mxCell>
        <mxCell id="wOfQMUhciinJpy3_DIqF-23" value="" style="endArrow=classic;startArrow=classic;html=1;rounded=0;exitX=0;exitY=0;exitDx=0;exitDy=0;entryX=1;entryY=0.75;entryDx=0;entryDy=0;" edge="1" parent="1" source="wOfQMUhciinJpy3_DIqF-18" target="wOfQMUhciinJpy3_DIqF-3">
          <mxGeometry width="50" height="50" relative="1" as="geometry">
            <mxPoint x="280" y="390" as="sourcePoint" />
            <mxPoint x="330" y="340" as="targetPoint" />
          </mxGeometry>
        </mxCell>
        <mxCell id="wOfQMUhciinJpy3_DIqF-25" value="" style="endArrow=classic;startArrow=classic;html=1;rounded=0;entryX=0.55;entryY=0.95;entryDx=0;entryDy=0;entryPerimeter=0;exitX=0.25;exitY=0;exitDx=0;exitDy=0;" edge="1" parent="1" source="wOfQMUhciinJpy3_DIqF-18" target="wOfQMUhciinJpy3_DIqF-10">
          <mxGeometry width="50" height="50" relative="1" as="geometry">
            <mxPoint x="280" y="390" as="sourcePoint" />
            <mxPoint x="330" y="340" as="targetPoint" />
          </mxGeometry>
        </mxCell>
        <mxCell id="wOfQMUhciinJpy3_DIqF-26" value="HLS" style="edgeLabel;html=1;align=center;verticalAlign=middle;resizable=0;points=[];" vertex="1" connectable="0" parent="wOfQMUhciinJpy3_DIqF-25">
          <mxGeometry x="0.0409" y="1" relative="1" as="geometry">
            <mxPoint as="offset" />
          </mxGeometry>
        </mxCell>
        <mxCell id="wOfQMUhciinJpy3_DIqF-27" value="主播端" style="shape=umlActor;verticalLabelPosition=bottom;verticalAlign=top;html=1;outlineConnect=0;" vertex="1" parent="1">
          <mxGeometry x="260" y="380" width="30" height="60" as="geometry" />
        </mxCell>
      </root>
    </mxGraphModel>
  </diagram>
</mxfile>
